<svg width="52" height="57" viewBox="0 0 52 57" fill="none" xmlns="http://www.w3.org/2000/svg">
<circle cx="26.5" cy="32" r="25" fill="#541F23"/>
<path fill-rule="evenodd" clip-rule="evenodd" d="M4.82861 5.04989V18.3972C4.82861 33.5059 12.5697 45.9848 25.5353 51.7778L26.0333 52L26.5312 51.7778C39.4555 46.0035 47.1715 33.5251 47.1715 18.3972V5.04221L25.6533 0L4.82861 5.04989Z" fill="#DE554B"/>
<path fill-rule="evenodd" clip-rule="evenodd" d="M39.8468 30.7698L39.7885 30.7458C36.0503 29.1974 33.0792 30.5653 31.1914 32.0636C32.116 29.7048 32.3435 27.582 32.3844 27.1074C32.6714 26.5296 33.0649 26.1783 33.5855 26.0341C34.9778 25.6479 36.7902 26.8514 36.8079 26.8634L37.2955 27.191L40.1659 20.1015L31.1955 11.3809L24.0756 12.1915C23.9197 12.2158 23.7657 12.2449 23.6117 12.2745C22.2344 10.4935 20.492 9.02926 18.4775 8.18354L25.9792 6.40344L41.7058 10.1341L41.8582 19.6809C41.8582 23.65 41.1617 27.3866 39.8468 30.7698V30.7698ZM26.0274 20.69C26.2853 23.4313 25.9773 30.0497 17.6242 32.4625L13.3337 24.8912C13.6709 21.4556 15.2675 18.411 17.6556 16.2582L17.737 16.3668C19.7921 19.1081 19.7959 22.0135 17.7475 24.5481L17.4493 24.917L18.1901 25.5106L18.4883 25.1417C20.8345 22.2382 20.8383 18.9207 18.4987 15.8003L18.3837 15.647C19.7972 14.5501 21.4423 13.7466 23.2385 13.3206C24.7438 15.4053 25.7717 17.9736 26.0274 20.69V20.69ZM33.43 14.9606C32.4227 15.7805 31.1692 16.801 31.4433 21.2893C31.6173 24.1518 31.4801 26.4223 31.4496 26.8615L31.4481 26.865L31.4433 26.9553C31.4414 26.9849 31.2564 29.9405 29.8369 32.851C28.0055 36.6068 25.06 38.5264 21.0798 38.5599L18.103 33.3073C24.2375 31.447 27.5495 26.7199 26.9738 20.6017C26.7362 18.0778 25.7631 15.4043 24.228 13.1266L30.8546 12.3724L33.4819 14.9265C33.4642 14.9373 33.4464 14.9471 33.43 14.9606V14.9606ZM35.371 20.0078C36.2807 20.0248 37.0306 19.3142 37.0693 18.4142L39.0464 20.336L36.8405 25.7836C36.0931 25.3831 34.6387 24.7599 33.334 25.1215C33.0127 25.2102 32.7224 25.3522 32.4623 25.5434C32.4921 24.5021 32.4991 22.9873 32.392 21.2319C32.1477 17.2273 33.1055 16.4476 34.0313 15.6937C34.0767 15.6568 34.1115 15.6129 34.1394 15.5656L37.0278 18.3735L33.731 18.3116C33.7139 19.2312 34.448 19.9904 35.371 20.0078V20.0078ZM25.9837 45.466C16.1344 40.9127 10.2685 31.306 10.2685 19.6808V10.1315L16.7167 8.60135C18.9242 9.15359 20.9828 10.567 22.6057 12.5077C17.0228 14.0221 12.8997 18.9446 12.3734 24.9539L12.3604 25.1001L20.5224 39.5021L20.7956 39.5059C20.8554 39.5066 20.9131 39.5069 20.9724 39.5069C25.0721 39.5069 27.708 37.6469 29.3996 35.3622L29.4475 35.3925L29.7038 34.9949C29.7136 34.9801 30.6816 33.4966 32.3733 32.3505C34.5922 30.8471 36.9647 30.6019 39.4235 31.6196L39.4878 31.6461C36.8833 37.7258 32.2259 42.5827 25.9837 45.466V45.466ZM25.9792 4.45703L8.36743 8.63606V19.6809C8.36743 32.2271 14.8084 42.5786 25.5965 47.3708L25.9837 47.5427L26.3709 47.3708C37.2588 42.5341 43.7593 32.1829 43.7593 19.6657L43.5834 8.63354L25.9792 4.45703Z" fill="#FEB447"/>
</svg>
