<svg width="52" height="57" viewBox="0 0 52 57" fill="none" xmlns="http://www.w3.org/2000/svg">
<circle cx="25.5" cy="32" r="25" fill="#B17220"/>
<path fill-rule="evenodd" clip-rule="evenodd" d="M46.7463 5.10471L45.2061 5.66765C45.056 5.72206 41.4839 6.97004 36.6509 3.64553C29.7967 -1.06919 22.508 -1.21528 16.1292 3.23339C11.6237 6.37625 7.05123 5.61967 7.00945 5.61239L5.66879 5.36733L5.63553 6.73655C5.61421 7.61523 5.14046 28.3227 7.13055 33.9962C9.88178 41.8401 14.5515 44.3879 19.0676 46.8517C21.3707 48.1078 23.5463 49.295 25.414 51.1719L26.2387 52L27.0629 51.1719C28.923 49.3031 31.0512 48.1211 33.3044 46.8693C37.7395 44.4059 42.3256 41.8581 45.0824 33.9962C47.0712 28.3283 46.7924 7.62594 46.78 6.74726L46.7463 5.10471Z" fill="#FCB542"/>
<path fill-rule="evenodd" clip-rule="evenodd" d="M40.2173 30.0838C39.933 29.2437 39.5048 28.3686 38.8972 27.5111C37.8859 26.0826 35.7747 23.912 31.9134 22.9844C33.8012 22.4949 35.2695 21.344 35.4449 18.2979L35.4848 17.6066L34.8391 17.8191C34.8144 17.8264 32.2252 18.52 26.3199 14.7212C24.8723 13.7829 22.5866 13.0584 20.3489 13.6939C20.3718 13.5682 20.3851 13.439 20.3851 13.3064C20.3851 12.1296 19.4474 11.1724 18.295 11.1724C17.1422 11.1724 16.2048 12.1296 16.2048 13.3064C16.2048 14.2459 16.8032 15.0437 17.6307 15.3276C16.6562 16.3124 15.8828 17.6647 15.3485 19.3487C15.2127 19.7772 15.1068 20.1998 15.0307 20.6161L14.9621 20.7882C12.797 26.2216 14.2282 29.2342 15.2733 31.4336C16.1931 33.3693 16.7626 34.5792 14.8906 36.5995C13.994 35.3972 13.1955 33.9119 12.5335 31.9945C11.2486 28.2725 11.2211 15.1735 11.244 11.1938C12.7544 11.3827 15.4973 11.2674 18.7108 9.02161C21.1059 7.34775 23.679 6.42523 26.1537 6.3526C28.6287 6.42523 31.2018 7.34775 33.597 9.02161C36.8108 11.2677 39.5531 11.383 41.0638 11.1938C41.0836 14.6515 41.065 24.9886 40.2173 30.0838V30.0838ZM31.0171 41.6388C30.2681 42.0617 29.5098 42.4921 28.7593 42.9655C29.9529 39.7233 29.4987 36.0955 28.3466 34.0328C27.4553 32.4367 25.7924 31.1329 23.4065 30.1555C23.1058 29.611 22.0069 27.4318 22.6445 25.7501C22.9789 24.868 23.7709 24.2408 24.9982 23.8861C25.7803 23.66 26.6265 23.5504 27.4794 23.4777V23.4856H27.9435C33.9976 23.4856 36.9339 26.3552 38.1451 28.066C39.1531 29.4891 39.619 30.9659 39.7137 32.1632C37.6937 37.8663 34.4499 39.7003 31.0171 41.6388V41.6388ZM24.7454 22.9743C23.2224 23.4146 22.2243 24.2335 21.7788 25.408C21.209 26.9114 21.7037 28.6288 22.1581 29.7105C19.4913 28.6793 17.5147 27.0904 16.5324 25.1686C16.0641 24.2512 15.8339 23.2655 15.8246 22.2246C16.0133 20.3325 16.7815 19.0234 18.114 18.3384C19.9179 17.4098 22.1872 17.8877 23.2212 18.5241C29.0049 22.0815 34.0935 19.6465 34.307 19.541L34.3253 19.5322C33.6471 22.1175 31.3816 22.2666 28.6058 22.4463C27.3176 22.5296 25.9857 22.6159 24.7454 22.9743V22.9743ZM20.2239 14.7282C20.8513 14.4973 21.4902 14.3994 22.1139 14.3994C23.5361 14.3994 24.8794 14.9098 25.8239 15.5225C29.6667 17.9944 32.2144 18.6618 33.6583 18.7931C32.9312 19.0831 30.6536 19.835 27.7606 19.2981C27.8875 18.3011 27.2226 17.3719 26.2434 17.2023C25.474 17.0688 24.7365 17.444 24.3566 18.0876C24.1388 17.9704 23.9203 17.8479 23.7004 17.7124C22.28 16.8388 19.693 16.4652 17.696 17.4923C17.429 17.6297 17.1469 17.8081 16.8678 18.0345C17.6843 16.3604 18.8079 15.2493 20.2239 14.7282V14.7282ZM18.295 14.4926C17.6539 14.4926 17.1329 13.9604 17.1329 13.3064C17.1329 12.6523 17.6539 12.1198 18.295 12.1198C18.9357 12.1198 19.457 12.6523 19.457 13.3064C19.457 13.9604 18.9357 14.4926 18.295 14.4926V14.4926ZM21.2925 41.6385C19.2095 40.4626 17.1961 39.3247 15.483 37.3392C17.8968 34.7867 17.0658 33.0358 16.1083 31.0202C15.2711 29.2573 14.2669 27.141 15.0332 23.6641C15.1669 24.3349 15.3912 24.9836 15.7095 25.6067C16.9309 27.9971 19.4926 29.9038 22.9238 30.9776C25.1851 31.8805 26.7388 33.0664 27.5403 34.5021C28.7231 36.6197 29.0687 40.7731 27.2443 44.0074C26.8755 44.2869 26.5111 44.5822 26.1556 44.9034C24.6167 43.5147 22.9303 42.5629 21.2925 41.6385V41.6385ZM42.8832 8.68273L41.6565 9.13941C41.5337 9.18489 38.6058 10.2255 34.6452 7.45766C31.9477 5.57251 29.0204 4.53504 26.1803 4.45766L26.1522 4.45703L26.1274 4.45766C23.2874 4.53504 20.36 5.57251 17.6626 7.45766C13.7026 10.2252 10.7734 9.1852 10.6583 9.14194L9.41712 8.65589L9.39762 10.0127C9.38742 10.7419 9.15971 27.9229 10.7827 32.6243C13.0328 39.1416 16.7753 41.2538 20.3944 43.2968C22.2367 44.3368 23.9773 45.319 25.4994 46.8729L26.1556 47.5427L26.8118 46.8729C28.3339 45.319 30.0735 44.3372 31.9155 43.2972C35.5337 41.2541 39.275 39.1419 41.5251 32.6243C43.148 27.9229 42.9203 10.7419 42.9101 10.0127L42.8832 8.68273Z" fill="#10141B"/>
</svg>
