<svg width="52" height="57" viewBox="0 0 52 57" fill="none" xmlns="http://www.w3.org/2000/svg">
<circle cx="26.5" cy="32" r="25" fill="#173151"/>
<path fill-rule="evenodd" clip-rule="evenodd" d="M46.6122 5.23716L45.3049 5.41162C45.2014 5.42612 34.9339 6.71552 26.6219 0.57472L25.8436 0L25.1325 0.657047C18.3783 6.90448 6.70979 5.4273 6.59257 5.41201L5.2962 5.23677L5.26455 6.5493C5.24306 7.43137 4.76639 28.2248 6.76722 33.9218C9.53384 41.7981 14.229 44.3565 18.7698 46.8307C21.0856 48.0918 23.2732 49.2836 25.1513 51.1685L25.98 52L26.8087 51.1685C28.6794 49.2922 30.8189 48.1052 33.0847 46.8483C37.5434 44.3742 42.1546 41.8162 44.9267 33.9218C46.9259 28.2299 46.6458 7.44235 46.6333 6.56028L46.6122 5.23716Z" fill="#265CAA"/>
<path fill-rule="evenodd" clip-rule="evenodd" d="M32.815 40.6954C37.0199 35.9728 37.6785 31.5097 37.1109 27.638C37.7333 28.3449 38.4022 28.7182 39.1122 28.7497C39.1434 28.751 39.1746 28.7516 39.2055 28.7516C39.7855 28.7516 40.3539 28.5104 40.8821 28.0545C40.7128 29.7083 40.4867 31.0907 40.1843 31.9593C38.4668 36.8945 35.7754 38.9797 32.815 40.6954V40.6954ZM26.1538 44.905C24.576 43.4983 22.822 42.5372 21.1188 41.6038C18.6445 40.2477 16.2653 38.943 14.3613 36.3473C16.5104 37.5095 18.7065 37.9535 20.7574 37.9532C23.9545 37.9532 26.7968 36.8828 28.5486 35.8086C33.0226 33.0657 35.0757 28.1283 35.0832 23.5339C35.235 23.9608 35.381 24.3975 35.5172 24.8427L35.5088 24.8468L35.5406 24.9197C37.0264 29.8328 37.2379 35.8364 29.7295 42.4172C28.5031 43.121 27.2832 43.8981 26.1538 44.905V44.905ZM24.6508 13.991L25.6973 16.2723C25.6156 16.2414 25.5355 16.2133 25.46 16.1877C25.3646 16.1558 25.2701 16.1249 25.1803 16.0851C23.9105 15.5224 22.0786 15.6452 20.9407 15.8025L21.8064 14.3494C22.2775 14.2345 23.5856 13.9472 24.6508 13.991V13.991ZM28.064 34.9984C25.0948 36.819 18.7801 38.6257 13.211 34.4938C12.8162 33.7414 12.4517 32.9031 12.1233 31.9593C11.3606 29.7683 11.0781 24.3302 10.9861 19.409L14.3728 16.3702C13.8574 19.5792 14.0576 22.4152 14.9712 24.8168C16.1115 27.8126 18.038 29.2963 19.4537 30.0137C22.4927 31.5539 26.0278 30.9732 28.0494 28.6023C30.9303 25.2222 29.0771 21.3132 28.2857 19.6442C28.1863 19.4349 28.1039 19.2618 28.0519 19.1308C27.8813 18.7026 27.6883 18.3155 27.4784 17.9682L27.5015 17.9572L25.9358 14.5439L26.6552 15.2537L28.1775 13.6721L25.5517 13.7062L25.4793 13.548L26.3082 11.921L30.7828 13.1439C31.6671 15.0772 32.8334 17.7383 33.2353 18.6594L33.3067 18.8703C33.4062 19.1639 33.5178 19.4671 33.6347 19.7755C35.1066 24.8316 33.5081 31.6603 28.064 34.9984V34.9984ZM10.9783 10.9712C12.0497 11.0439 13.8558 11.0953 15.9718 10.8677C20.1082 10.4231 23.6071 9.09 26.1538 6.99691C28.7005 9.09 32.1994 10.4231 36.3354 10.8677C38.4518 11.0953 40.2585 11.0442 41.3296 10.9712C41.3708 13.6308 41.4359 20.9767 41.0234 26.4498C40.4394 27.3421 39.7755 27.8309 39.1528 27.8034C38.2803 27.7649 37.357 26.7321 36.5534 24.896L36.4031 24.5519C35.9896 23.1907 35.4898 21.9315 35.0383 20.7945C34.8555 20.3344 34.6803 19.8911 34.5185 19.4636C34.4377 19.1901 34.3516 18.9199 34.2543 18.6569C34.249 18.6417 34.1957 18.5179 34.1072 18.3139L34.0392 18.1141L34.0223 18.1201C33.5269 16.9837 32.3463 14.3008 31.5396 12.5446L31.4476 12.3447L25.8226 10.8074L24.6836 13.0435C23.2273 12.987 21.4634 13.4584 21.3842 13.4802L21.2024 13.5294L19.0452 17.1517L20.1144 16.9079C20.144 16.9016 23.1653 16.2265 24.8055 16.9531C24.9221 17.0045 25.0428 17.0459 25.1653 17.0866C25.3284 17.1416 25.4824 17.1934 25.609 17.2742C26.2187 17.6641 26.7634 18.4286 27.1837 19.4847C27.2417 19.63 27.3325 19.8223 27.4426 20.054C28.2146 21.6833 29.8218 25.0729 27.3409 27.9831C25.6 30.026 22.5285 30.5129 19.8724 29.1665C14.989 26.6923 14.4361 20.3272 15.5468 15.1953L15.8543 13.7754L10.9668 18.1605C10.9278 15.0999 10.9562 12.3785 10.9783 10.9712V10.9712ZM43.1559 8.85635L42.1223 8.99623C42.0253 9.00886 32.3591 10.2485 26.7877 5.04874L26.1538 4.45703L25.5195 5.04874C19.9619 10.2359 10.2811 9.00917 10.1856 8.99623L9.15164 8.85635L9.12638 9.91253C9.10923 10.6435 8.71727 27.8723 10.3587 32.5889C12.6263 39.1044 16.491 41.2221 20.2285 43.27C22.14 44.3174 23.9458 45.3066 25.4924 46.8727L26.1538 47.5427L26.8152 46.8727C28.3621 45.3066 30.1676 44.3177 32.0791 43.27C35.8166 41.2221 39.6813 39.1044 41.9486 32.5889C43.5906 27.8723 43.1987 10.6435 43.1812 9.91253L43.1559 8.85635Z" fill="#F1BA8C"/>
</svg>
