<svg width="52" height="57" viewBox="0 0 52 57" fill="none" xmlns="http://www.w3.org/2000/svg">
<circle cx="26" cy="32" r="25" fill="#05201C"/>
<path fill-rule="evenodd" clip-rule="evenodd" d="M44.8537 7.08121C44.721 7.07695 34.6029 7.06799 26.6911 0.623659L25.9259 0L25.2002 0.669729C18.0978 7.2318 7.26187 7.08121 7.15145 7.08164L5.94287 7.05391L6.80129 27.473C7.26058 37.5292 24.2181 50.8977 24.9399 51.4621L25.6277 52L26.3255 51.4745C27.0645 50.9178 44.4331 37.7267 44.974 27.261L46.0572 7.07311L44.8537 7.08121Z" fill="#086C5C"/>
<path fill-rule="evenodd" clip-rule="evenodd" d="M39.541 28.6799C39.7127 28.0681 39.8173 27.4842 39.8459 26.9336L40.631 12.3757C38.1863 12.2219 31.7435 11.4151 26.1668 7.21714C20.9824 11.566 14.1953 12.2819 11.6557 12.3934L12.2782 27.1224C12.326 28.164 12.6693 29.3411 13.2839 30.6287C13.8485 29.5824 14.7853 28.765 15.4855 28.3317L26.7839 20.1893C27.1847 19.898 27.3938 19.5809 27.4214 19.2222C27.4529 18.8128 27.246 18.4137 27.0637 18.1476L23.6316 20.812L21.0022 19.7703L21.0119 19.7936L20.5755 19.9703C19.2605 20.5036 18.5223 20.8884 18.6468 22.5946L18.6811 23.0592L17.7405 23.1266L17.7062 22.662C17.6669 22.1241 17.7113 21.6788 17.8109 21.2999L16.1592 21.2784L16.1714 20.3467L18.2501 20.3737C18.6547 19.8399 19.2256 19.5309 19.7852 19.2883L18.2479 18.679L18.2545 18.3569C18.2743 17.4317 18.3284 15.2453 18.4089 14.922L18.4607 14.7149L26.6946 10.5762L26.9219 10.7194C27.0168 10.7794 29.2851 12.2164 32.2405 14.7369L32.271 14.7655C33.6945 16.2193 34.3415 18.0603 34.0932 19.9495C33.8765 21.5986 32.9777 23.0431 31.6891 23.8124C31.4945 23.9285 31.2389 24.1204 30.9921 24.3062C30.817 24.4375 30.6466 24.5652 30.4992 24.6661C26.2174 27.5929 21.2678 31.3334 19.9194 32.3589C21.5573 34.5428 23.1393 33.8095 25.0168 32.6219L32.8168 27.2625C34.3849 26.3264 36.1287 26.2264 37.6268 26.9711C38.4253 27.3681 39.0905 27.9752 39.541 28.6799ZM26.1476 44.8658C27.2903 43.9465 29.9666 41.7182 32.6417 38.9401C35.8565 35.6015 38.0377 32.5517 39.1021 29.9445C38.8289 29.0709 38.1326 28.2656 37.203 27.8035C36.4969 27.4519 35.0539 27.0165 33.3292 28.0435L25.5402 33.3971L25.5394 33.3976C24.7179 33.9169 23.519 34.6748 22.2138 34.6748C21.1251 34.6751 19.9622 34.1478 18.8817 32.516L18.6437 32.1561L18.987 31.8927L18.9936 31.8877C19.2237 31.7117 25.0319 27.2701 29.9625 23.8999C30.0977 23.8074 30.2537 23.6901 30.4145 23.5692L30.4212 23.5642L30.4278 23.5593C30.6924 23.3608 30.9655 23.1559 31.2009 23.0151C32.2462 22.3909 32.9777 21.1999 33.1582 19.8296C33.3679 18.2336 32.8174 16.6715 31.6077 15.4283C29.2351 13.4061 27.2796 12.0735 26.6377 11.6502L19.3048 15.3357C19.2706 15.7997 19.231 16.9451 19.2049 18.0541L23.4769 19.7467L27.1775 16.8743L27.4736 17.1677C27.5132 17.2072 28.4501 18.1498 28.3621 19.2927C28.3124 19.9296 27.9694 20.484 27.3416 20.9408L15.9985 29.1138C15.9052 29.1715 14.2786 30.1976 13.8397 31.6986C15.0582 33.849 16.9725 36.2748 19.5403 38.9013C19.6692 39.0333 19.7978 39.1628 19.927 39.292C21.2065 39.9495 22.6074 39.9756 24.2384 39.3967C26.1947 38.7029 31.8164 34.4524 31.873 34.4096L32.2471 34.126L32.8212 34.8655L32.4471 35.149C32.2113 35.3276 26.6503 39.5311 24.5568 40.2737C23.6907 40.5809 22.8655 40.7352 22.0795 40.7352C21.8362 40.7352 21.5966 40.7197 21.3605 40.6902C23.4097 42.6312 25.25 44.1484 26.1476 44.8658ZM41.6137 10.548H41.6178L42.6188 10.5418L41.7297 27.0305C41.2858 35.572 27.3202 46.3404 26.726 46.7947L26.1498 47.2351L25.5726 46.7953C24.9683 46.3351 10.7711 35.4211 10.3935 27.2034L9.68896 10.5256L10.6947 10.5483C10.6966 10.5482 10.7029 10.5482 10.7136 10.5482C11.1773 10.5484 19.798 10.5512 25.489 5.31957L26.0926 4.76489L26.7295 5.28137C33.1623 10.4949 41.3883 10.548 41.6137 10.548ZM23.5716 14.8317L22.7013 17.2909L19.5611 16.5535L23.5716 14.8317Z" fill="#D3E9F5"/>
</svg>
