<svg version="1.2" xmlns="http://www.w3.org/2000/svg" viewBox="0 0 150 92" width="150" height="92">
	<title>sorting-hat-svg</title>
	<style>
		.s0 { fill: #FFF } 
	</style>
	<path id="Layer" fill-rule="evenodd" class="s0" d="m92.7 49.3l5.9 21.2 26.1 2.6c-4 7.5-14.8 13.1-31.9 10.9-15.8-2-17.4 5.9-28.1 5.9-33.1 0-39.4-26.7-39.4-26.7l23 2.3-0.7-9.9c0 0 11.4-13.7 14.1-37.8 11.9-20.1 36.2-16.5 44.7-1.2l-13.9 0.3c0.9 3.6-3 6.9-6.2 7.2l3.9 10.9 5.2 3-11.3 8.4 1 3.2zm-25.7-14.9l-1.5 12.8 12.2 2.1 1-3.2zm-6.8 28.4l1 2.2c14.2 0 21.6-3.1 21.6-3.1l8.6 3.7 1-1.4c-5.7-10.3-21.2-9.7-32.2-1.4z"/>
</svg>